<?xml version="1.0" encoding="UTF-8" standalone="no"?>
<svg xmlns="http://www.w3.org/2000/svg" xmlns:svg="http://www.w3.org/2000/svg" version="1.1" viewBox="0 0 512 512" preserveAspectRatio="xMidYMid slice" width="512" height="512">
  <defs>
    <filter style="color-interpolation-filters:sRGB" id="glowing-shadow-filter" x="-0.021999746" y="-0.03024965" width="1.064754" height="1.0890367">
      <feFlood result="flood" in="SourceGraphic" flood-opacity="0.898039" flood-color="rgb(84,255,146)"/>
      <feGaussianBlur result="blur" in="SourceGraphic" stdDeviation="3.000000"/>
      <feOffset result="offset" in="blur" dx="0.000000" dy="0.000000"/>
      <feComposite result="comp1" operator="in" in="flood" in2="offset"/>
      <feComposite result="comp2" operator="over" in="SourceGraphic" in2="comp1"/>
    </filter>
  </defs>
  <g id="invader" style="fill:#00ff00" transform="translate(-6)">
    <path id="invader-path" style="opacity:1;fill:#f9fff9;fill-opacity:1;stroke:#000000;stroke-width:10;stroke-linecap:square;stroke-linejoin:miter;stroke-dasharray:none;stroke-opacity:1;filter:url(#glowing-shadow-filter)" d="M 103.56687,77.015845 V 120.818 h 43.80216 V 77.015845 Z M 147.36903,120.818 v 43.80216 h -43.80216 v 43.80216 H 59.764715 V 120.818 h -43.80216 v 175.20864 h 43.80216 v 43.80216 h 43.802165 v 43.80216 h 43.80215 V 339.8288 h 219.0108 v 43.80216 h 43.80216 V 339.8288 h 43.80216 v -43.80216 h 43.80216 V 120.818 h -43.80216 v 87.60432 H 410.18199 V 164.62016 H 366.37983 V 120.818 h -43.80216 v 43.80216 H 191.17119 V 120.818 Z m 219.0108,0 h 43.80216 V 77.015845 h -43.80216 z m 43.80216,262.81296 v 43.80216 h 43.80216 v -43.80216 z m -306.61512,0 H 59.764715 v 43.80216 h 43.802155 z m 43.80216,-175.20864 h 43.80216 v 43.80216 h -43.80216 z m 175.20864,0 h 43.80216 v 43.80216 h -43.80216 z"/>
  </g>
</svg>
